<svg width="20" height="19" viewBox="0 0 20 19" fill="none" xmlns="http://www.w3.org/2000/svg">
<path d="M14.296 0H6.05985C3.26011 0 0.990417 2.26338 0.990417 5.05533V13.2685C0.990417 16.0605 3.26011 18.3239 6.05985 18.3239H14.296C17.0957 18.3239 19.3654 16.0605 19.3654 13.2685V5.05533C19.3654 2.26338 17.0957 0 14.296 0ZM17.7345 13.2685C17.7345 15.166 16.1851 16.6975 14.296 16.6975H6.05985C4.15712 16.6975 2.62133 15.1524 2.62133 13.2685V5.05533C2.62133 3.17144 4.17071 1.62638 6.05985 1.62638H14.296C16.1987 1.62638 17.7345 3.17144 17.7345 5.05533V13.2685Z" fill="#1E3359"/>
<path d="M10.1781 4.4458C7.5686 4.4458 5.43481 6.56009 5.43481 9.1623C5.43481 11.7645 7.55501 13.8923 10.1781 13.8923C12.7875 13.8923 14.9213 11.7781 14.9213 9.1623C14.9213 6.56009 12.7875 4.4458 10.1781 4.4458ZM10.1781 12.266C8.4656 12.266 7.06573 10.8835 7.06573 9.17585C7.07932 7.4546 8.4656 6.07218 10.1781 6.07218C11.8905 6.07218 13.2904 7.4546 13.2904 9.1623C13.2904 10.87 11.8905 12.266 10.1781 12.266Z" fill="#1E3359"/>
<path d="M15.1116 3.06299C14.799 3.06299 14.4864 3.18497 14.269 3.41537C14.0515 3.63222 13.9156 3.94394 13.9156 4.25567C13.9156 4.56739 14.0379 4.87911 14.269 5.09596C14.4864 5.31281 14.799 5.44834 15.1116 5.44834C15.4242 5.44834 15.7368 5.32636 15.9542 5.09596C16.1717 4.87911 16.3076 4.56739 16.3076 4.25567C16.3076 3.94394 16.1853 3.63222 15.9542 3.41537C15.7368 3.18497 15.4378 3.06299 15.1116 3.06299Z" fill="#1E3359"/>
</svg>
