<svg width="20" height="19" viewBox="0 0 20 19" fill="none" xmlns="http://www.w3.org/2000/svg">
<path d="M17.7503 0.000175476H2.08051C1.34041 0.000175476 0.727905 0.585521 0.727905 1.32357V17.0261C0.727905 17.7387 1.34041 18.324 2.08051 18.324H17.7503C18.4904 18.324 19.1029 17.7387 19.1029 17.0007V1.32357C19.1029 0.585521 18.4904 0.000175476 17.7503 0.000175476ZM6.29145 15.3464H3.50968V7.07522H6.29145V15.3464ZM4.91332 5.92998C3.96905 5.92998 3.35655 5.29374 3.35655 4.50479C3.35655 3.6904 3.96905 3.0796 4.93884 3.0796C5.88311 3.0796 6.47009 3.6904 6.49561 4.50479C6.47009 5.29374 5.88311 5.92998 4.91332 5.92998ZM16.2956 15.3464H13.5394V10.9181C13.5394 9.79835 13.131 9.03486 12.1357 9.03486C11.3701 9.03486 10.9107 9.54385 10.7066 10.0529C10.63 10.231 10.6045 10.4855 10.6045 10.7145V15.3464H7.8227C7.8227 15.3464 7.84822 7.83872 7.8227 7.07522H10.6045V8.24592C10.9618 7.68602 11.6253 6.87162 13.1055 6.87162C14.943 6.87162 16.2956 8.04232 16.2956 10.5873V15.3464ZM10.5789 8.27136C10.5789 8.27136 10.5789 8.24592 10.6045 8.24592L10.5789 8.27136Z" fill="#1E3359"/>
</svg>
