<svg width="19" height="16" viewBox="0 0 19 16" fill="none" xmlns="http://www.w3.org/2000/svg">
<path d="M18.6279 2.55038C17.9102 2.83669 17.1924 3.123 16.4746 3.123C17.1924 2.69354 17.9102 1.97776 18.1973 0.975675C17.4795 1.40514 16.6182 1.69145 15.7568 1.83461C15.0391 1.26199 14.0342 0.83252 13.0293 0.83252C10.876 0.83252 9.15332 2.55038 9.15332 4.55455C9.15332 4.84086 9.15332 5.12718 9.29688 5.41349C6.13867 5.27033 3.41113 3.83878 1.54492 1.5483C1.25781 2.12092 0.970703 2.69354 0.970703 3.40931C0.970703 4.69771 1.68848 5.84295 2.69336 6.55873C2.11914 6.55873 1.54492 6.41557 0.970703 6.12926C0.970703 7.99028 2.2627 9.42183 3.98535 9.8513C3.69824 9.8513 3.41113 9.99445 2.98047 9.99445C2.69336 9.99445 2.5498 9.99445 2.2627 9.99445C2.69336 11.426 4.12891 12.5712 5.85156 12.5712C4.55957 13.4302 2.98047 14.146 1.11426 14.146C0.827148 14.146 0.540039 14.146 0.25293 14.146C1.97559 15.148 3.8418 15.8638 5.99512 15.8638C12.8857 15.8638 16.7617 10.1376 16.7617 5.12718V4.69771C17.4795 3.98193 18.0537 3.40931 18.6279 2.55038Z" fill="#1E3359"/>
</svg>
